<?xml version="1.0" standalone="no"?>
<!DOCTYPE svg PUBLIC "-//W3C//DTD SVG 20010904//EN"
 "http://www.w3.org/TR/2001/REC-SVG-20010904/DTD/svg10.dtd">
<svg version="1.0" xmlns="http://www.w3.org/2000/svg"
 width="40px" height="40px" viewBox="0 0 512.000000 512.000000"
 preserveAspectRatio="xMidYMid meet">
<metadata>
Created by potrace 1.16, written by Peter Selinger 2001-2019
</metadata>
<g transform="translate(0.000000,512.000000) scale(0.100000,-0.100000)"
fill="#ff8700" stroke="none">
<path d="M421 4804 c-127 -45 -228 -163 -260 -305 -6 -25 -11 -184 -11 -361
l0 -318 2411 0 2410 0 -3 328 -3 327 -29 60 c-39 79 -142 180 -226 223 -114
57 -147 62 -442 62 l-267 0 -3 -252 c-3 -235 -4 -255 -23 -280 -21 -30 -89
-68 -120 -68 -31 0 -99 38 -120 68 -19 25 -20 45 -23 280 l-3 252 -1209 0
-1210 0 0 -241 c0 -230 -1 -243 -22 -280 -27 -48 -94 -84 -140 -75 -48 9 -94
43 -112 80 -13 28 -16 74 -16 275 l0 241 -267 0 c-215 -1 -277 -4 -312 -16z"/>
<path d="M150 2083 c0 -1160 3 -1437 14 -1478 33 -125 107 -217 214 -268 l67
-32 2055 -3 c1858 -2 2060 -1 2110 14 171 49 309 173 359 322 21 61 21 73 21
1467 l0 1405 -2420 0 -2420 0 0 -1427z m1394 853 c18 -7 42 -26 54 -41 21 -26
22 -37 22 -242 0 -237 -4 -258 -63 -293 -29 -18 -51 -20 -242 -20 -226 0 -242
3 -279 53 -20 27 -21 41 -21 252 0 312 -8 304 303 304 142 1 201 -3 226 -13z
m1189 0 c18 -7 41 -23 52 -36 19 -21 20 -36 20 -261 l0 -239 -28 -27 -27 -28
-239 0 -239 0 -26 24 c-42 40 -48 79 -44 298 4 287 -1 282 306 282 141 1 201
-3 225 -13z m1214 -2 c65 -32 68 -43 68 -284 0 -118 -3 -228 -8 -243 -4 -15
-22 -36 -40 -47 -29 -18 -51 -20 -250 -20 -320 0 -307 -13 -307 308 0 210 1
221 22 247 38 49 66 54 281 55 165 0 205 -3 234 -16z m-2387 -1359 c57 -29 61
-53 58 -293 -4 -307 6 -297 -313 -297 -203 0 -211 1 -242 23 -48 34 -55 75
-51 303 3 182 5 200 24 226 37 50 53 53 282 53 171 0 219 -3 242 -15z m1190 0
c55 -29 60 -52 60 -292 0 -315 10 -307 -326 -301 -288 4 -283 -1 -283 306 -1
211 5 242 54 280 27 21 37 22 247 22 176 0 225 -3 248 -15z m1199 2 c13 -6 34
-25 45 -40 20 -27 21 -41 21 -252 0 -312 8 -304 -303 -304 -211 -1 -242 5
-280 54 -21 27 -22 37 -22 247 0 320 -13 307 300 307 151 1 222 -3 239 -12z"/>
</g>
</svg>
