<?xml version="1.0" standalone="no"?>
<!DOCTYPE svg PUBLIC "-//W3C//DTD SVG 20010904//EN"
 "http://www.w3.org/TR/2001/REC-SVG-20010904/DTD/svg10.dtd">
<svg version="1.0" xmlns="http://www.w3.org/2000/svg"
 width="55px" height="55px" viewBox="0 0 512.000000 512.000000"
 preserveAspectRatio="xMidYMid meet">
<g transform="translate(0.000000,512.000000) scale(0.100000,-0.100000)"
fill="#ff8700" stroke="none">
<path d="M3386 4791 c-55 -37 -66 -66 -66 -178 l0 -103 213 0 c116 0 246 -5
286 -10 206 -27 364 -185 391 -391 13 -99 13 -2699 0 -2798 -27 -206 -185
-364 -391 -391 -40 -5 -170 -10 -286 -10 l-213 0 0 -252 c0 -279 2 -286 66
-329 28 -18 62 -19 834 -19 772 0 806 1 834 19 15 10 37 32 47 47 18 28 19 90
19 2184 0 2094 -1 2156 -19 2184 -10 15 -32 37 -47 47 -28 18 -62 19 -834 19
-772 0 -806 -1 -834 -19z m1358 -2860 c43 -29 66 -70 66 -121 0 -80 -60 -140
-140 -140 -106 0 -175 114 -125 209 33 65 137 92 199 52z m0 -600 c43 -29 66
-70 66 -121 0 -80 -60 -140 -140 -140 -106 0 -175 114 -125 209 33 65 137 92
199 52z"/>
<path d="M66 4191 c-15 -10 -37 -32 -47 -47 -18 -28 -19 -74 -19 -1434 0
-1360 1 -1406 19 -1434 10 -15 32 -37 47 -47 28 -18 84 -19 1894 -19 1810 0
1866 1 1894 19 15 10 37 32 47 47 18 28 19 74 19 1434 0 1360 -1 1406 -19
1434 -10 15 -32 37 -47 47 -28 18 -84 19 -1894 19 -1810 0 -1866 -1 -1894 -19z"/>
<path d="M1508 816 c-6 -106 -24 -147 -80 -181 -29 -18 -57 -20 -233 -25 -166
-4 -204 -8 -224 -22 -42 -30 -61 -69 -61 -128 0 -62 20 -100 66 -131 28 -18
65 -19 989 -19 924 0 961 1 989 19 46 31 66 69 66 131 0 59 -19 98 -61 128
-20 14 -58 18 -229 22 -188 5 -208 7 -240 27 -56 34 -72 73 -78 180 l-5 93
-447 0 -447 0 -5 -94z"/>
</g>
</svg>
