<?xml version="1.0" standalone="no"?>
<!DOCTYPE svg PUBLIC "-//W3C//DTD SVG 20010904//EN"
 "http://www.w3.org/TR/2001/REC-SVG-20010904/DTD/svg10.dtd">
<svg version="1.0" xmlns="http://www.w3.org/2000/svg"
 width="40px" height="50px" viewBox="0 0 512.000000 512.000000"
 preserveAspectRatio="xMidYMid meet">
<metadata>
Created by potrace 1.16, written by Peter Selinger 2001-2019
</metadata>
<g transform="translate(0.000000,512.000000) scale(0.100000,-0.100000)"
fill="#000000" stroke="none">
<path d="M472 3900 c-48 -30 -72 -75 -72 -140 0 -65 24 -110 72 -140 33 -20
55 -20 2088 -20 2033 0 2055 0 2088 20 48 30 72 75 72 140 0 65 -24 110 -72
140 -33 20 -55 20 -2088 20 -2033 0 -2055 0 -2088 -20z"/>
<path d="M472 2700 c-48 -30 -72 -75 -72 -140 0 -65 24 -110 72 -140 33 -20
55 -20 2088 -20 2033 0 2055 0 2088 20 48 30 72 75 72 140 0 65 -24 110 -72
140 -33 20 -55 20 -2088 20 -2033 0 -2055 0 -2088 -20z"/>
<path d="M472 1500 c-48 -30 -72 -75 -72 -140 0 -65 24 -110 72 -140 33 -20
55 -20 2088 -20 2033 0 2055 0 2088 20 48 30 72 75 72 140 0 65 -24 110 -72
140 -33 20 -55 20 -2088 20 -2033 0 -2055 0 -2088 -20z"/>
</g>
</svg>
