<?xml version="1.0" standalone="no"?>
<!DOCTYPE svg PUBLIC "-//W3C//DTD SVG 20010904//EN"
 "http://www.w3.org/TR/2001/REC-SVG-20010904/DTD/svg10.dtd">
<svg version="1.0" xmlns="http://www.w3.org/2000/svg"
 width="55px" height="55px" viewBox="0 0 512.000000 512.000000"
 preserveAspectRatio="xMidYMid meet">
<g transform="translate(0.000000,512.000000) scale(0.100000,-0.100000)"
fill="#ff8700" stroke="none">
<path d="M303 5100 c-134 -48 -237 -152 -284 -288 -18 -53 -19 -108 -19 -1802
0 -1694 1 -1749 19 -1802 47 -138 151 -242 288 -289 54 -18 94 -19 1288 -19
l1231 0 25 32 c40 53 48 71 49 105 0 44 -446 3654 -461 3723 -34 163 -157 297
-316 345 -41 13 -182 15 -908 14 -812 0 -863 -2 -912 -19z m1272 -1074 c35
-23 52 -42 66 -76 17 -39 309 -1510 309 -1554 0 -47 -31 -101 -70 -121 -69
-35 -166 -7 -195 57 -9 18 -37 141 -63 273 l-48 240 -219 0 -219 0 -48 -240
c-26 -132 -54 -255 -63 -273 -29 -64 -126 -92 -195 -57 -39 20 -70 74 -70 121
0 41 291 1511 308 1554 14 35 60 79 91 86 14 3 31 7 36 10 6 2 87 2 180 1 149
-2 175 -4 200 -21z"/>
<path d="M1315 3738 c-5 -16 -115 -570 -115 -580 0 -5 70 -8 155 -8 118 0 155
3 155 13 -1 6 -27 140 -58 297 l-58 285 -37 3 c-24 2 -39 -1 -42 -10z"/>
<path d="M2805 4178 c16 -96 385 -3084 385 -3122 0 -70 -19 -145 -53 -210 -21
-39 -151 -196 -373 -450 l-342 -391 1166 -3 c1055 -2 1171 -1 1217 14 139 45
248 152 296 291 19 55 19 98 19 1793 0 1677 -1 1739 -19 1792 -29 85 -49 118
-113 184 -42 44 -79 71 -131 95 l-72 34 -993 3 -993 2 6 -32z m1327 -1055 c52
-31 70 -74 76 -178 l5 -93 246 -4 c225 -3 249 -5 279 -23 46 -28 72 -73 72
-126 0 -77 -54 -132 -140 -144 l-46 -6 -28 -77 c-66 -180 -166 -361 -281 -507
l-55 -70 42 -39 c24 -21 109 -90 189 -152 80 -62 151 -125 157 -139 31 -67 3
-159 -57 -190 -35 -18 -103 -20 -133 -4 -26 14 -213 159 -317 246 -42 35 -79
63 -82 63 -3 0 -42 -31 -85 -68 -113 -97 -275 -227 -301 -240 -31 -17 -99 -15
-134 3 -60 31 -88 123 -57 190 6 14 73 75 147 135 75 59 158 128 184 152 l48
43 -51 65 c-99 125 -220 348 -277 510 l-28 79 -46 6 c-85 12 -139 67 -139 144
0 53 26 98 72 126 30 18 54 20 274 23 l241 4 5 93 c6 103 22 141 74 176 37 24
106 25 146 2z"/>
<path d="M3810 2546 c0 -9 35 -87 72 -161 48 -96 167 -277 180 -273 21 7 143
193 198 303 33 66 60 124 60 128 0 4 -115 7 -255 7 -140 0 -255 -2 -255 -4z"/>
<path d="M1750 587 c0 -7 7 -67 15 -132 20 -150 58 -239 138 -319 46 -46 134
-104 141 -94 2 2 116 128 255 281 l252 277 -401 0 c-320 0 -400 -3 -400 -13z"/>
</g>
</svg>
