<?xml version="1.0" standalone="no"?>
<!DOCTYPE svg PUBLIC "-//W3C//DTD SVG 20010904//EN"
 "http://www.w3.org/TR/2001/REC-SVG-20010904/DTD/svg10.dtd">
<svg version="1.0" xmlns="http://www.w3.org/2000/svg"
 width="55px" height="55px" viewBox="0 0 512.000000 512.000000"
 preserveAspectRatio="xMidYMid meet">
<g transform="translate(0.000000,512.000000) scale(0.100000,-0.100000)"
fill="#ff8700" stroke="none">
<path d="M3055 4825 c-173 -28 -376 -97 -533 -182 -91 -49 -117 -78 -109 -121
3 -15 85 -161 182 -326 97 -164 174 -304 171 -310 -3 -6 -21 -32 -40 -59 -58
-80 -78 -148 -74 -252 3 -78 7 -100 36 -158 41 -83 112 -156 189 -194 54 -26
67 -28 182 -29 l125 -1 182 -307 c100 -170 188 -312 195 -317 30 -19 68 -6
174 57 61 37 145 86 187 111 l77 44 48 -37 c127 -97 282 -116 422 -51 73 33
173 140 200 212 24 64 32 159 19 232 l-8 41 174 106 c214 131 212 128 160 254
-19 48 -64 143 -100 211 -260 501 -627 847 -1059 1001 -185 66 -279 82 -505
86 -147 2 -231 -1 -295 -11z"/>
<path d="M1840 4529 c-606 -69 -1112 -458 -1343 -1034 -71 -178 -108 -337
-127 -545 -19 -219 -25 -240 -125 -460 -51 -113 -112 -243 -134 -289 -59 -122
-54 -209 17 -285 48 -51 95 -66 211 -66 l103 0 -5 -27 c-3 -16 -18 -97 -33
-182 l-28 -154 20 -36 c10 -19 33 -44 49 -55 27 -18 30 -25 30 -71 0 -48 5
-61 49 -120 6 -9 -1 -40 -22 -94 -18 -45 -35 -95 -38 -111 -16 -79 36 -160
127 -199 100 -44 186 -53 525 -60 l321 -6 40 -27 c110 -73 109 -218 -2 -493
-58 -143 -59 -172 -4 -200 42 -22 2106 -22 2148 0 63 32 57 62 -58 287 -151
297 -186 434 -163 652 13 126 37 215 147 541 83 245 131 428 171 648 32 173
29 190 -37 207 -26 7 -126 10 -280 8 -280 -4 -274 -1 -289 -106 -13 -95 -56
-153 -140 -191 -145 -66 -307 34 -327 200 -11 95 -8 94 -267 97 l-225 3 -3
366 -3 365 -24 19 c-13 10 -34 19 -48 19 -91 0 -197 71 -229 155 -53 139 45
293 200 314 38 5 65 15 79 30 22 21 22 23 22 447 l0 426 -24 19 c-19 16 -38
19 -115 18 -50 -1 -125 -5 -166 -10z m-1073 -2356 c81 -242 311 -358 538 -272
106 41 191 128 227 234 l17 50 215 3 216 2 0 -358 c0 -346 1 -360 20 -385 15
-19 33 -27 68 -32 26 -3 71 -17 100 -32 191 -94 163 -366 -44 -429 -26 -8 -60
-14 -75 -14 -18 0 -35 -9 -48 -26 -20 -26 -21 -38 -21 -385 l0 -359 -171 0
c-148 0 -170 2 -165 15 19 51 57 190 67 249 34 199 -38 358 -199 438 -46 22
-56 23 -392 29 -346 6 -412 13 -481 49 -25 14 -24 19 13 92 41 80 50 195 21
242 -18 29 -18 30 4 52 27 27 31 79 9 110 -8 11 -42 31 -75 45 -34 13 -61 27
-61 31 0 21 53 291 66 337 20 69 11 107 -29 132 -28 16 -52 19 -177 19 -188 0
-194 5 -140 118 l29 62 231 0 c211 0 231 -2 237 -17z"/>
</g>
</svg>
