<?xml version="1.0" standalone="no"?>
<!DOCTYPE svg PUBLIC "-//W3C//DTD SVG 20010904//EN"
 "http://www.w3.org/TR/2001/REC-SVG-20010904/DTD/svg10.dtd">
<svg version="1.0" xmlns="http://www.w3.org/2000/svg"
 width="40px" height="40px" viewBox="0 0 512.000000 512.000000"
 preserveAspectRatio="xMidYMid meet">
<metadata>
Created by potrace 1.16, written by Peter Selinger 2001-2019
</metadata>
<g transform="translate(0.000000,512.000000) scale(0.100000,-0.100000)"
fill="#ff8700" stroke="none">
<path d="M2367 5005 c-116 -75 -187 -115 -205 -115 -15 0 -117 11 -226 25
-110 14 -200 24 -201 23 -60 -104 -231 -375 -239 -380 -6 -4 -101 -37 -211
-74 -110 -37 -201 -68 -203 -69 -1 -1 -13 -103 -26 -226 l-24 -224 -161 -155
-160 -155 74 -205 c41 -112 75 -211 74 -220 0 -8 -33 -105 -73 -215 l-73 -200
160 -161 160 -162 23 -217 c13 -120 25 -219 27 -221 2 -2 98 -37 212 -77 l209
-72 108 -175 c60 -96 112 -182 117 -189 8 -13 39 -11 230 12 l222 27 189 -121
190 -121 190 121 191 121 220 -27 c189 -23 223 -24 230 -12 5 8 57 93 117 189
l109 175 208 72 c114 40 209 74 212 76 2 3 14 102 27 222 l23 217 160 162 160
161 -73 200 c-40 110 -73 207 -73 215 -1 9 33 108 74 220 l74 205 -160 155
-161 155 -24 224 c-13 123 -25 225 -26 226 -2 1 -94 33 -206 70 -111 38 -206
72 -211 75 -4 3 -58 88 -121 190 -62 102 -114 186 -115 187 0 1 -91 -9 -200
-22 -110 -14 -212 -25 -227 -25 -17 0 -91 42 -205 115 -99 63 -186 115 -194
115 -8 0 -94 -52 -192 -115z m383 -499 c145 -23 246 -56 378 -122 70 -35 159
-87 197 -116 261 -198 433 -470 502 -798 24 -117 24 -362 -1 -479 -112 -525
-498 -912 -1019 -1022 -143 -31 -351 -31 -494 0 -521 110 -906 496 -1019 1022
-25 116 -25 361 -1 479 88 416 339 740 712 921 118 57 256 101 371 118 94 14
281 12 374 -3z"/>
<path d="M2376 4215 c-215 -45 -394 -142 -536 -292 -349 -367 -372 -924 -55
-1320 205 -257 548 -399 874 -363 135 15 227 41 346 100 421 207 638 682 521
1141 -89 351 -365 628 -716 719 -110 29 -332 36 -434 15z"/>
<path d="M1205 1688 c-23 -63 -406 -1270 -403 -1272 2 -1 168 7 369 17 l366
20 281 -224 c155 -123 287 -224 293 -224 6 0 87 236 180 525 129 403 165 528
156 536 -7 6 -84 57 -172 113 -143 91 -163 101 -195 97 -129 -20 -473 -57
-484 -53 -7 3 -74 103 -147 223 -107 173 -140 220 -164 229 -58 24 -75 27 -80
13z"/>
<path d="M3851 1682 c-43 -16 -50 -26 -178 -232 -73 -118 -134 -219 -136 -224
-3 -8 -338 26 -497 50 -31 4 -52 -6 -195 -97 -88 -56 -165 -107 -172 -113 -9
-8 27 -133 156 -536 93 -288 172 -525 177 -527 5 -1 137 99 294 224 l285 227
365 -20 c201 -11 366 -19 368 -18 7 4 -405 1278 -414 1280 -5 2 -29 -5 -53
-14z"/>
</g>
</svg>
