<?xml version="1.0" standalone="no"?>
<!DOCTYPE svg PUBLIC "-//W3C//DTD SVG 20010904//EN"
 "http://www.w3.org/TR/2001/REC-SVG-20010904/DTD/svg10.dtd">
<svg version="1.0" xmlns="http://www.w3.org/2000/svg"
 width="55px" height="55px" viewBox="0 0 512.000000 512.000000"
 preserveAspectRatio="xMidYMid meet">
<g transform="translate(0.000000,512.000000) scale(0.100000,-0.100000)"
fill="#ff8700" stroke="none">
<path d="M2602 5104 c-28 -20 -272 -504 -272 -540 0 -32 25 -80 45 -88 12 -4
7 -21 -31 -99 -46 -92 -47 -93 -80 -89 -19 2 -48 -1 -65 -8 -27 -12 -73 -97
-475 -901 -477 -954 -469 -935 -423 -993 24 -30 685 -366 720 -366 11 0 35 6
54 14 31 13 44 35 150 246 l116 231 42 -34 c102 -83 238 -131 377 -131 124 -1
203 17 308 71 l85 43 51 -29 c197 -114 350 -329 398 -560 16 -77 19 -118 14
-206 -7 -134 -24 -202 -81 -322 -86 -177 -221 -312 -399 -398 -167 -80 -149
-78 -713 -82 l-503 -4 0 100 0 101 165 0 c186 0 224 9 249 59 28 53 17 107
-28 143 -19 16 -78 18 -814 18 l-794 0 -29 -29 c-41 -42 -41 -107 0 -153 l29
-33 181 -3 181 -4 0 -98 0 -99 -37 -6 c-139 -22 -225 -71 -304 -176 -69 -90
-79 -142 -79 -397 l0 -224 29 -29 29 -29 1862 0 1862 0 29 30 30 30 -3 242 -3
243 -33 67 c-36 74 -100 144 -168 184 -31 18 -42 30 -35 38 21 25 121 237 149
317 17 47 43 139 58 205 27 112 28 132 29 349 0 258 -13 349 -82 555 -154 462
-523 851 -979 1030 -79 31 -99 43 -123 77 -75 103 -202 195 -316 229 -33 10
-64 21 -68 25 -5 3 14 52 42 108 28 55 51 114 51 131 0 35 -23 86 -42 93 -9 3
0 30 31 94 l43 90 43 0 c75 0 85 13 222 287 136 274 138 282 91 341 -13 17
-137 84 -350 191 -349 174 -383 186 -436 148z m282 -1944 c113 -77 126 -233
27 -323 -49 -44 -100 -61 -162 -54 -160 19 -236 214 -131 339 60 71 189 90
266 38z"/>
</g>
</svg>
