<?xml version="1.0" standalone="no"?>
<!DOCTYPE svg PUBLIC "-//W3C//DTD SVG 20010904//EN"
 "http://www.w3.org/TR/2001/REC-SVG-20010904/DTD/svg10.dtd">
<svg version="1.0" xmlns="http://www.w3.org/2000/svg"
 width="55px" height="55px" viewBox="0 0 512.000000 512.000000"
 preserveAspectRatio="xMidYMid meet">
<g transform="translate(0.000000,512.000000) scale(0.100000,-0.100000)"
fill="#ff8700" stroke="none">
<path d="M2334 4269 c-63 -18 -127 -71 -156 -129 -20 -41 -96 -351 -295 -1217
-147 -640 -271 -1163 -274 -1163 -4 0 -185 254 -404 565 -242 345 -411 576
-433 593 -70 54 -88 57 -337 57 -253 0 -281 -5 -342 -58 -63 -55 -86 -103 -91
-188 -3 -60 0 -85 15 -120 29 -64 66 -104 125 -133 48 -24 62 -26 188 -26
l136 0 534 -761 c321 -457 549 -772 570 -788 131 -101 314 -67 394 72 18 31
104 390 336 1392 171 743 313 1358 316 1368 5 16 68 17 1148 17 987 0 1149 2
1186 15 103 36 170 131 170 239 0 92 -15 131 -73 191 -89 92 19 85 -1421 84
-724 0 -1274 -5 -1292 -10z"/>
<path d="M3085 2969 c-17 -5 -49 -24 -72 -44 -79 -68 -101 -194 -50 -297 16
-32 114 -153 247 -306 121 -139 220 -255 220 -258 0 -3 -106 -130 -235 -282
-133 -157 -247 -300 -261 -329 -36 -72 -32 -170 9 -231 61 -92 194 -128 300
-79 71 32 109 74 315 345 94 123 173 223 177 223 4 0 83 -100 177 -223 195
-257 241 -309 300 -339 59 -30 155 -37 213 -14 98 37 147 110 148 220 1 99
-25 139 -287 440 -130 149 -236 272 -236 275 0 3 102 125 226 270 124 146 235
282 246 304 45 89 31 198 -34 265 -47 48 -85 64 -164 69 -129 8 -164 -21 -403
-333 l-176 -231 -180 239 c-181 241 -219 282 -289 311 -41 17 -141 20 -191 5z"/>
</g>
</svg>
