<?xml version="1.0" standalone="no"?>
<!DOCTYPE svg PUBLIC "-//W3C//DTD SVG 20010904//EN"
 "http://www.w3.org/TR/2001/REC-SVG-20010904/DTD/svg10.dtd">
<svg version="1.0" xmlns="http://www.w3.org/2000/svg"
 width="55px" height="55px" viewBox="0 0 512.000000 512.000000"
 preserveAspectRatio="xMidYMid meet">
<g transform="translate(0.000000,512.000000) scale(0.100000,-0.100000)"
fill="#ff8700" stroke="none">
<path d="M535 4941 c-22 -10 -54 -34 -72 -52 -68 -72 -63 49 -63 -1619 l0
-1510 -100 0 c-87 0 -103 -3 -120 -20 -27 -27 -27 -93 0 -120 19 -19 33 -20
365 -20 l345 0 0 59 c0 32 11 101 24 153 63 246 230 455 456 568 l65 33 -30
21 c-110 79 -206 206 -246 327 -21 64 -24 92 -24 209 1 123 3 141 28 205 111
282 376 445 671 413 231 -24 433 -185 523 -413 25 -64 27 -82 28 -205 0 -117
-3 -145 -24 -209 -40 -121 -136 -248 -246 -327 l-30 -21 71 -36 c77 -39 147
-88 209 -148 l40 -38 260 107 260 106 105 3 104 2 336 621 c184 341 348 634
365 652 64 68 182 90 262 50 51 -26 107 -89 123 -137 7 -20 10 -63 8 -95 -4
-53 -31 -106 -381 -754 -348 -645 -377 -702 -377 -747 0 -146 -70 -288 -183
-370 l-40 -29 836 0 c824 0 837 0 857 20 27 27 27 93 0 120 -17 17 -33 20
-120 20 l-100 0 0 1513 c0 1452 -1 1514 -19 1552 -10 22 -34 54 -52 72 -72 68
99 63 -2091 63 -1910 0 -1984 -1 -2023 -19z"/>
<path d="M3947 3588 c-9 -7 -179 -314 -377 -683 -199 -368 -365 -673 -369
-678 -4 -4 -29 2 -55 14 -40 17 -62 20 -125 17 -70 -4 -99 -14 -366 -124
l-289 -119 -91 90 c-103 104 -202 162 -331 195 -105 27 -263 27 -368 0 -248
-63 -453 -268 -516 -516 -19 -73 -20 -114 -20 -831 0 -740 0 -753 20 -773 20
-20 33 -20 700 -20 667 0 680 0 700 20 20 20 20 33 20 643 l0 622 348 140
c342 138 348 141 404 196 68 67 94 137 85 227 l-6 55 385 712 c409 757 410
759 364 805 -23 23 -87 27 -113 8z"/>
<path d="M1608 3421 c-145 -47 -269 -174 -312 -320 -21 -71 -21 -211 0 -282
43 -148 168 -274 315 -320 82 -26 216 -26 298 0 147 46 272 172 315 320 21 71
21 211 0 282 -43 148 -168 274 -315 320 -81 25 -222 25 -301 0z"/>
</g>
</svg>
