<?xml version="1.0" standalone="no"?>
<!DOCTYPE svg PUBLIC "-//W3C//DTD SVG 20010904//EN"
 "http://www.w3.org/TR/2001/REC-SVG-20010904/DTD/svg10.dtd">
<svg version="1.0" xmlns="http://www.w3.org/2000/svg"
 width="512.000000pt" height="512.000000pt" viewBox="0 0 512.000000 512.000000"
 preserveAspectRatio="xMidYMid meet">
<metadata>
Created by potrace 1.16, written by Peter Selinger 2001-2019
</metadata>
<g transform="translate(0.000000,512.000000) scale(0.100000,-0.100000)"
fill="#fff" stroke="none">
<path d="M2360 4299 c-286 -74 -507 -297 -580 -583 -28 -109 -28 -283 0 -392
58 -228 209 -417 415 -519 126 -63 221 -85 365 -85 144 0 239 22 365 85 204
101 359 295 415 519 28 109 27 283 0 392 -73 288 -296 511 -584 584 -107 27
-290 27 -396 -1z"/>
<path d="M2006 2544 c-160 -29 -342 -104 -491 -202 -90 -60 -277 -247 -337
-337 -101 -153 -173 -332 -203 -499 -11 -64 -15 -158 -15 -345 0 -238 1 -258
20 -289 11 -18 34 -41 52 -52 32 -19 52 -20 753 -20 l720 0 -277 278 c-152
152 -281 287 -287 299 -6 12 -11 39 -11 60 0 23 72 254 180 578 99 297 180
541 180 542 0 9 -218 -1 -284 -13z"/>
<path d="M2830 2557 c0 -1 81 -245 180 -542 108 -324 180 -555 180 -578 0 -21
-5 -48 -11 -60 -6 -12 -135 -147 -287 -299 l-277 -278 720 0 c701 0 721 1 753
20 18 11 41 34 52 52 19 31 20 51 20 289 0 187 -4 281 -15 345 -30 167 -102
346 -203 499 -60 90 -247 277 -337 337 -213 140 -455 218 -681 218 -52 0 -94
-1 -94 -3z"/>
<path d="M2405 1930 l-150 -450 153 -153 152 -152 152 152 153 153 -150 450
c-82 247 -152 450 -155 450 -3 0 -73 -203 -155 -450z"/>
</g>
</svg>
