<?xml version="1.0" standalone="no"?>
<!DOCTYPE svg PUBLIC "-//W3C//DTD SVG 20010904//EN"
 "http://www.w3.org/TR/2001/REC-SVG-20010904/DTD/svg10.dtd">
<svg version="1.0" xmlns="http://www.w3.org/2000/svg"
 width="55px" height="55px" viewBox="0 0 512.000000 512.000000"
 preserveAspectRatio="xMidYMid meet">
<g transform="translate(0.000000,512.000000) scale(0.100000,-0.100000)"
fill="#2D1D54" stroke="none">
<path d="M2226 5104 c-1163 -149 -2089 -1092 -2215 -2256 -14 -125 -14 -451 0
-576 57 -528 290 -1043 651 -1438 418 -459 968 -743 1588 -820 152 -19 472
-18 630 1 1163 144 2082 1063 2225 2225 20 163 20 477 0 640 -38 303 -128 595
-269 865 -388 746 -1124 1257 -1956 1360 -155 19 -502 18 -654 -1z m490 -598
c269 -13 610 -124 861 -279 383 -238 677 -599 823 -1014 78 -219 110 -411 110
-653 0 -242 -32 -434 -110 -653 -195 -551 -645 -998 -1199 -1191 -217 -76
-403 -107 -637 -107 -529 0 -1007 198 -1382 571 -311 311 -503 702 -562 1146
-20 150 -8 472 23 614 87 397 262 723 538 999 279 279 623 462 1019 542 99 19
318 38 385 32 17 -1 76 -4 131 -7z"/>
<path d="M2355 4214 c-199 -30 -379 -85 -540 -166 -457 -229 -778 -648 -887
-1154 -20 -96 -23 -136 -23 -334 0 -198 3 -238 23 -334 141 -659 632 -1149
1298 -1298 86 -19 129 -22 334 -22 206 0 247 2 333 22 668 149 1150 631 1299
1299 20 86 22 127 22 333 0 206 -2 247 -22 333 -149 666 -632 1151 -1294 1298
-74 17 -136 21 -303 24 -115 2 -223 1 -240 -1z m355 -952 l0 -647 345 -345
345 -345 -102 -102 -103 -103 -392 392 -393 393 0 702 0 703 150 0 150 0 0
-648z"/>
</g>
</svg>
